{
	"asset":{
		"generator":"Khronos glTF Blender I/O v4.2.57",
		"version":"2.0"
	},
	"scene":0,
	"scenes":[
		{
			"name":"Scene",
			"nodes":[
				4,
				7,
				11
			]
		}
	],
	"nodes":[
		{
			"mesh":0,
			"name":"leg1-node",
			"rotation":[
				-4.908120090907353e-11,
				2.2863731501572756e-29,
				1.764039971047538e-26,
				1
			],
			"scale":[
				0.25819969177246094,
				1,
				0.2964865267276764
			],
			"translation":[
				-1.674524904273957e-25,
				1.2209126949310303,
				-2.3283064365386963e-10
			]
		},
		{
			"children":[
				0
			],
			"name":"bone2",
			"translation":[
				0,
				2.393977403640747,
				0
			]
		},
		{
			"mesh":1,
			"name":"leg2-node",
			"scale":[
				0.26189756393432617,
				1,
				0.29757773876190186
			],
			"translation":[
				0,
				1.1498342752456665,
				0
			]
		},
		{
			"children":[
				1,
				2
			],
			"name":"bone1",
			"translation":[
				0,
				-0.13388483226299286,
				0
			]
		},
		{
			"children":[
				3
			],
			"name":"Armature"
		},
		{
			"mesh":2,
			"name":"cube-node",
			"translation":[
				-0.005849123001098633,
				0.47552013397216797,
				0.0722818374633789
			]
		},
		{
			"children":[
				5
			],
			"name":"bone-cube"
		},
		{
			"children":[
				6
			],
			"name":"Armature2",
			"translation":[
				0.005849123001098633,
				2.1047468185424805,
				-5.902378082275391
			]
		},
		{
			"name":"Bone"
		},
		{
			"children":[
				8
			],
			"name":"Armature3",
			"translation":[
				1.8457722663879395,
				-1.3858305215835571,
				2.2918968200683594
			]
		},
		{
			"children":[
				9
			],
			"mesh":3,
			"name":"Sphere",
			"translation":[
				0.047978878021240234,
				-1.0843921899795532,
				-2.044466972351074
			]
		},
		{
			"children":[
				10
			],
			"mesh":4,
			"name":"Cube",
			"translation":[
				-5.402950286865234,
				2.058617115020752,
				-12.466323852539062
			]
		}
	],
	"animations":[
		{
			"channels":[
				{
					"sampler":0,
					"target":{
						"node":3,
						"path":"translation"
					}
				},
				{
					"sampler":1,
					"target":{
						"node":3,
						"path":"rotation"
					}
				},
				{
					"sampler":2,
					"target":{
						"node":3,
						"path":"scale"
					}
				},
				{
					"sampler":3,
					"target":{
						"node":1,
						"path":"translation"
					}
				},
				{
					"sampler":4,
					"target":{
						"node":1,
						"path":"rotation"
					}
				},
				{
					"sampler":5,
					"target":{
						"node":1,
						"path":"scale"
					}
				}
			],
			"name":"myanim",
			"samplers":[
				{
					"input":17,
					"interpolation":"STEP",
					"output":18
				},
				{
					"input":19,
					"interpolation":"LINEAR",
					"output":20
				},
				{
					"input":17,
					"interpolation":"STEP",
					"output":21
				},
				{
					"input":17,
					"interpolation":"LINEAR",
					"output":22
				},
				{
					"input":19,
					"interpolation":"LINEAR",
					"output":23
				},
				{
					"input":17,
					"interpolation":"STEP",
					"output":24
				}
			]
		},
		{
			"channels":[
				{
					"sampler":0,
					"target":{
						"node":3,
						"path":"translation"
					}
				},
				{
					"sampler":1,
					"target":{
						"node":3,
						"path":"rotation"
					}
				},
				{
					"sampler":2,
					"target":{
						"node":3,
						"path":"scale"
					}
				},
				{
					"sampler":3,
					"target":{
						"node":1,
						"path":"translation"
					}
				},
				{
					"sampler":4,
					"target":{
						"node":1,
						"path":"rotation"
					}
				},
				{
					"sampler":5,
					"target":{
						"node":1,
						"path":"scale"
					}
				}
			],
			"name":"myanim2",
			"samplers":[
				{
					"input":17,
					"interpolation":"STEP",
					"output":25
				},
				{
					"input":19,
					"interpolation":"LINEAR",
					"output":26
				},
				{
					"input":17,
					"interpolation":"STEP",
					"output":27
				},
				{
					"input":17,
					"interpolation":"LINEAR",
					"output":28
				},
				{
					"input":19,
					"interpolation":"LINEAR",
					"output":29
				},
				{
					"input":17,
					"interpolation":"STEP",
					"output":30
				}
			]
		}
	],
	"meshes":[
		{
			"name":"leg1-mesh",
			"primitives":[
				{
					"attributes":{
						"POSITION":0,
						"NORMAL":1,
						"TEXCOORD_0":2
					},
					"indices":3
				}
			]
		},
		{
			"name":"leg2-mesh",
			"primitives":[
				{
					"attributes":{
						"POSITION":4,
						"NORMAL":5,
						"TEXCOORD_0":6
					},
					"indices":3
				}
			]
		},
		{
			"name":"cube-mesh",
			"primitives":[
				{
					"attributes":{
						"POSITION":7,
						"NORMAL":8,
						"TEXCOORD_0":9
					},
					"indices":3
				}
			]
		},
		{
			"name":"Sphere",
			"primitives":[
				{
					"attributes":{
						"POSITION":10,
						"NORMAL":11,
						"TEXCOORD_0":12
					},
					"indices":13
				}
			]
		},
		{
			"name":"Cube",
			"primitives":[
				{
					"attributes":{
						"POSITION":14,
						"NORMAL":15,
						"TEXCOORD_0":16
					},
					"indices":3
				}
			]
		}
	],
	"accessors":[
		{
			"bufferView":0,
			"componentType":5126,
			"count":24,
			"max":[
				1,
				1,
				1
			],
			"min":[
				-1,
				-1,
				-1
			],
			"type":"VEC3"
		},
		{
			"bufferView":1,
			"componentType":5126,
			"count":24,
			"type":"VEC3"
		},
		{
			"bufferView":2,
			"componentType":5126,
			"count":24,
			"type":"VEC2"
		},
		{
			"bufferView":3,
			"componentType":5123,
			"count":36,
			"type":"SCALAR"
		},
		{
			"bufferView":4,
			"componentType":5126,
			"count":24,
			"max":[
				1,
				1,
				1
			],
			"min":[
				-1,
				-1,
				-1
			],
			"type":"VEC3"
		},
		{
			"bufferView":5,
			"componentType":5126,
			"count":24,
			"type":"VEC3"
		},
		{
			"bufferView":6,
			"componentType":5126,
			"count":24,
			"type":"VEC2"
		},
		{
			"bufferView":7,
			"componentType":5126,
			"count":24,
			"max":[
				1,
				1,
				1
			],
			"min":[
				-1,
				-1,
				-1
			],
			"type":"VEC3"
		},
		{
			"bufferView":8,
			"componentType":5126,
			"count":24,
			"type":"VEC3"
		},
		{
			"bufferView":9,
			"componentType":5126,
			"count":24,
			"type":"VEC2"
		},
		{
			"bufferView":10,
			"componentType":5126,
			"count":1984,
			"max":[
				0.9999997019767761,
				1,
				0.9999993443489075
			],
			"min":[
				-0.9999990463256836,
				-1,
				-1
			],
			"type":"VEC3"
		},
		{
			"bufferView":11,
			"componentType":5126,
			"count":1984,
			"type":"VEC3"
		},
		{
			"bufferView":12,
			"componentType":5126,
			"count":1984,
			"type":"VEC2"
		},
		{
			"bufferView":13,
			"componentType":5123,
			"count":2880,
			"type":"SCALAR"
		},
		{
			"bufferView":14,
			"componentType":5126,
			"count":24,
			"max":[
				1,
				1,
				1
			],
			"min":[
				-1,
				-1,
				-1
			],
			"type":"VEC3"
		},
		{
			"bufferView":15,
			"componentType":5126,
			"count":24,
			"type":"VEC3"
		},
		{
			"bufferView":16,
			"componentType":5126,
			"count":24,
			"type":"VEC2"
		},
		{
			"bufferView":17,
			"componentType":5126,
			"count":2,
			"max":[
				0.8333333333333334
			],
			"min":[
				0.041666666666666664
			],
			"type":"SCALAR"
		},
		{
			"bufferView":18,
			"componentType":5126,
			"count":2,
			"type":"VEC3"
		},
		{
			"bufferView":19,
			"componentType":5126,
			"count":20,
			"max":[
				0.8333333333333334
			],
			"min":[
				0.041666666666666664
			],
			"type":"SCALAR"
		},
		{
			"bufferView":20,
			"componentType":5126,
			"count":20,
			"type":"VEC4"
		},
		{
			"bufferView":21,
			"componentType":5126,
			"count":2,
			"type":"VEC3"
		},
		{
			"bufferView":22,
			"componentType":5126,
			"count":2,
			"type":"VEC3"
		},
		{
			"bufferView":23,
			"componentType":5126,
			"count":20,
			"type":"VEC4"
		},
		{
			"bufferView":24,
			"componentType":5126,
			"count":2,
			"type":"VEC3"
		},
		{
			"bufferView":25,
			"componentType":5126,
			"count":2,
			"type":"VEC3"
		},
		{
			"bufferView":26,
			"componentType":5126,
			"count":20,
			"type":"VEC4"
		},
		{
			"bufferView":27,
			"componentType":5126,
			"count":2,
			"type":"VEC3"
		},
		{
			"bufferView":28,
			"componentType":5126,
			"count":2,
			"type":"VEC3"
		},
		{
			"bufferView":29,
			"componentType":5126,
			"count":20,
			"type":"VEC4"
		},
		{
			"bufferView":30,
			"componentType":5126,
			"count":2,
			"type":"VEC3"
		}
	],
	"bufferViews":[
		{
			"buffer":0,
			"byteLength":288,
			"byteOffset":0,
			"target":34962
		},
		{
			"buffer":0,
			"byteLength":288,
			"byteOffset":288,
			"target":34962
		},
		{
			"buffer":0,
			"byteLength":192,
			"byteOffset":576,
			"target":34962
		},
		{
			"buffer":0,
			"byteLength":72,
			"byteOffset":768,
			"target":34963
		},
		{
			"buffer":0,
			"byteLength":288,
			"byteOffset":840,
			"target":34962
		},
		{
			"buffer":0,
			"byteLength":288,
			"byteOffset":1128,
			"target":34962
		},
		{
			"buffer":0,
			"byteLength":192,
			"byteOffset":1416,
			"target":34962
		},
		{
			"buffer":0,
			"byteLength":288,
			"byteOffset":1608,
			"target":34962
		},
		{
			"buffer":0,
			"byteLength":288,
			"byteOffset":1896,
			"target":34962
		},
		{
			"buffer":0,
			"byteLength":192,
			"byteOffset":2184,
			"target":34962
		},
		{
			"buffer":0,
			"byteLength":23808,
			"byteOffset":2376,
			"target":34962
		},
		{
			"buffer":0,
			"byteLength":23808,
			"byteOffset":26184,
			"target":34962
		},
		{
			"buffer":0,
			"byteLength":15872,
			"byteOffset":49992,
			"target":34962
		},
		{
			"buffer":0,
			"byteLength":5760,
			"byteOffset":65864,
			"target":34963
		},
		{
			"buffer":0,
			"byteLength":288,
			"byteOffset":71624,
			"target":34962
		},
		{
			"buffer":0,
			"byteLength":288,
			"byteOffset":71912,
			"target":34962
		},
		{
			"buffer":0,
			"byteLength":192,
			"byteOffset":72200,
			"target":34962
		},
		{
			"buffer":0,
			"byteLength":8,
			"byteOffset":72392
		},
		{
			"buffer":0,
			"byteLength":24,
			"byteOffset":72400
		},
		{
			"buffer":0,
			"byteLength":80,
			"byteOffset":72424
		},
		{
			"buffer":0,
			"byteLength":320,
			"byteOffset":72504
		},
		{
			"buffer":0,
			"byteLength":24,
			"byteOffset":72824
		},
		{
			"buffer":0,
			"byteLength":24,
			"byteOffset":72848
		},
		{
			"buffer":0,
			"byteLength":320,
			"byteOffset":72872
		},
		{
			"buffer":0,
			"byteLength":24,
			"byteOffset":73192
		},
		{
			"buffer":0,
			"byteLength":24,
			"byteOffset":73216
		},
		{
			"buffer":0,
			"byteLength":320,
			"byteOffset":73240
		},
		{
			"buffer":0,
			"byteLength":24,
			"byteOffset":73560
		},
		{
			"buffer":0,
			"byteLength":24,
			"byteOffset":73584
		},
		{
			"buffer":0,
			"byteLength":320,
			"byteOffset":73608
		},
		{
			"buffer":0,
			"byteLength":24,
			"byteOffset":73928
		}
	],
	"buffers":[
		{
			"byteLength":73952,
			"uri":"anim-test.bin"
		}
	]
}
